PathFileType	4	(X/Y/Z)	./resultDataOpenSim/trcMotMarkerGrf/sub10/qtm-15-04.trc
DataRate	CameraRate	NumFrames	NumMarkers	Units	OrigDataRate	OrigDataStartFrame	OrigNumFrames
250.000000	250.000000	7	24	m	250.000000	314	501
Frame#	Time	L.Toe.Tip			R.Toe.Tip			L.Ankle.Lat			R.Ankle.Lat			L.Ankle.Med			R.Ankle.Med			L.Heel			R.Heel			L.Knee.Lat			R.Knee.Lat			L.Knee.Med			R.Knee.Med			L.Thigh.Upper			R.Thigh.Upper			L.ASIS			R.ASIS			V.Sacral			L.Acromium			R.Acromium			C7			L.Elbow			R.Elbow			L.Wrist.Lat			R.Wrist.Lat
		X1	Y1	Z1	X2	Y2	Z2	X3	Y3	Z3	X4	Y4	Z4	X5	Y5	Z5	X6	Y6	Z6	X7	Y7	Z7	X8	Y8	Z8	X9	Y9	Z9	X10	Y10	Z10	X11	Y11	Z11	X12	Y12	Z12	X13	Y13	Z13	X14	Y14	Z14	X15	Y15	Z15	X16	Y16	Z16	X17	Y17	Z17	X18	Y18	Z18	X19	Y19	Z19	X20	Y20	Z20	X21	Y21	Z21	X22	Y22	Z22	X23	Y23	Z23	X24	Y24	Z24

314	1.252	0.16829651	0.12270356	-0.17256585	0.8895605	0.037959767	-0.021576274	0.19949582	0.26256526	-0.20503228	0.74665837	0.056022315	0.01183768	0.23489394	0.24631125	-0.12801931	0.76937455	0.081575939	-0.071515467	0.17447458	0.31617275	-0.15036967	0.69480601	0.034786793	-0.034050861	0.54962933	0.40475974	-0.23913075	0.83196479	0.43988669	0.04619703	0.56507954	0.35751945	-0.12638449	0.83992714	0.44875096	-0.080783958	0.6297466	0.77376619	-0.24371547	0.70038628	0.82026247	0.13306518	0.70695186	0.88620784	-0.19302491	0.74500003	0.91145111	0.041133636	0.5304224	0.9130416	-0.036794535	0.64137826	1.3904508	-0.18242159	0.58399849	1.3855561	0.10325668	0.55701892	1.3980192	-0.050933641	0.56169526	1.1451289	-0.41528925	0.36374593	1.148655	0.21033697	0.74427911	1.1761781	-0.59551097	0.30896015	1.1751394	0.45702069
315	1.256	0.17319297	0.12690297	-0.17319538	0.88971984	0.037950403	-0.021719303	0.20716715	0.26593983	-0.20641739	0.74702429	0.056276652	0.011358541	0.24259119	0.24918927	-0.12957928	0.76975911	0.081319542	-0.072220844	0.18330727	0.32025158	-0.15185132	0.6949165	0.034879736	-0.034520474	0.55875347	0.40255566	-0.24078891	0.83729358	0.43905953	0.04497026	0.57410707	0.35495752	-0.12835364	0.84319577	0.44820071	-0.082165242	0.63663658	0.77083232	-0.24373571	0.70459326	0.81896879	0.13390697	0.71292925	0.88297136	-0.1924114	0.75010198	0.90876279	0.041958633	0.53496735	0.90988375	-0.037660001	0.64785625	1.3881854	-0.18263189	0.59027367	1.3833777	0.10363354	0.56280029	1.3960595	-0.050741161	0.56594845	1.141149	-0.41350801	0.37207999	1.1436269	0.21039108	0.74718751	1.1692256	-0.59497079	0.31557028	1.1677352	0.4566657
316	1.26	0.17849272	0.13097873	-0.17384688	0.8898624	0.03794354	-0.021853843	0.21504717	0.26914588	-0.20777435	0.74734113	0.056533345	0.010983189	0.25040165	0.25199352	-0.13108263	0.77009535	0.081108225	-0.07281779	0.19232433	0.32415069	-0.15339584	0.69501911	0.034964624	-0.034891526	0.56787069	0.40051449	-0.24231496	0.84264458	0.43840403	0.043805401	0.58331576	0.35250297	-0.13018853	0.84652991	0.44790161	-0.083568453	0.64348583	0.76802505	-0.24381932	0.7086249	0.81780483	0.13473073	0.71882325	0.87973403	-0.19172199	0.75515959	0.90623721	0.042922602	0.53948264	0.90695585	-0.038766214	0.65428949	1.3860151	-0.18285625	0.59648005	1.3812719	0.10397898	0.56857608	1.3942589	-0.050562922	0.57024199	1.1372228	-0.41160329	0.38043193	1.1387089	0.21044806	0.74994056	1.1622403	-0.59433803	0.32232801	1.1602653	0.45630327
317	1.264	0.18422917	0.13490741	-0.17453853	0.88997326	0.037935863	-0.021974183	0.22318749	0.27212865	-0.2091577	0.74759352	0.056705155	0.010723059	0.25805422	0.25475317	-0.13234538	0.77035509	0.080889998	-0.0732889	0.20147331	0.32783809	-0.15492982	0.69509717	0.034982381	-0.035142585	0.57704325	0.39860486	-0.24383349	0.84791314	0.43781161	0.042700699	0.59256638	0.3501954	-0.13179488	0.85003838	0.44777548	-0.084893491	0.65023255	0.76538253	-0.2438851	0.71246819	0.81673147	0.13552454	0.72464979	0.87650538	-0.1909438	0.76018979	0.90393868	0.04405654	0.54381741	0.90427139	-0.040103053	0.66065674	1.3839433	-0.1830939	0.60262215	1.3792385	0.1042989	0.57433192	1.3926123	-0.050418205	0.57457387	1.1333605	-0.40956748	0.38879629	1.1339203	0.2104954	0.75244927	1.1552715	-0.593614	0.32923739	1.1527435	0.45593296
318	1.268	0.19042307	0.13866701	-0.17528195	0.89004032	0.037927464	-0.022073871	0.23168981	0.27485716	-0.21066049	0.74777745	0.056744499	0.010560605	0.2655567	0.25749599	-0.1333824	0.77052319	0.080641937	-0.073635629	0.21071126	0.33130228	-0.15643053	0.69513616	0.034901249	-0.035276958	0.58632328	0.39675523	-0.24544729	0.85311211	0.43721246	0.041688818	0.60180277	0.34806267	-0.13318993	0.85374866	0.44773594	-0.086063565	0.65677391	0.76298609	-0.24383309	0.71612024	0.81571531	0.13627754	0.73043013	0.87328546	-0.19007447	0.76518277	0.90190867	0.045408066	0.54796859	0.90177051	-0.041613911	0.66694006	1.3819724	-0.1833368	0.6087242	1.3772831	0.10458872	0.58004889	1.3910965	-0.050323515	0.57892259	1.1295789	-0.40744198	0.39717013	1.1292728	0.21052051	0.75471448	1.1483628	-0.59279885	0.33629546	1.1451831	0.45555024
319	1.272	0.19707373	0.14223574	-0.17607332	0.89005939	0.037920706	-0.02214805	0.24064304	0.27736992	-0.2123452	0.74789882	0.056648768	0.010459681	0.27316394	0.2602065	-0.13434589	0.77060099	0.080366551	-0.073881459	0.22000767	0.33455421	-0.15791813	0.69512987	0.034721771	-0.035317512	0.59568823	0.39488216	-0.24712054	0.85827327	0.43656709	0.040808274	0.61106842	0.34611739	-0.13448956	0.85760143	0.44770943	-0.087068	0.66302482	0.76091743	-0.2436114	0.71958352	0.81472104	0.13697937	0.73617142	0.87008947	-0.18913362	0.77009947	0.90015208	0.047019984	0.55206712	0.89938844	-0.043250352	0.67313069	1.3801014	-0.18357779	0.61482167	1.3754172	0.10483615	0.58571625	1.3896901	-0.050288902	0.58326822	1.1258998	-0.40526687	0.40555067	1.1247744	0.21051589	0.75689829	1.1415156	-0.59189832	0.34349709	1.1375982	0.4551456
320	1.276	0.20417013	0.14558734	-0.17689813	0.89003711	0.037917937	-0.022196585	0.25000519	0.27976865	-0.21417184	0.74796778	0.056452885	0.010386976	0.28110288	0.26281571	-0.13533777	0.77061363	0.080071149	-0.074062705	0.22933942	0.33760649	-0.15940581	0.69508549	0.034469258	-0.035300497	0.6050519	0.39290795	-0.24871656	0.86333509	0.43583086	0.040076965	0.62040831	0.34436453	-0.135761	0.86150346	0.44764768	-0.087946947	0.66897273	0.7591827	-0.24324654	0.72286854	0.81372222	0.13762458	0.74185672	0.86697573	-0.18815773	0.77489115	0.89864344	0.048894903	0.55620201	0.89713206	-0.044972293	0.6792256	1.3783256	-0.18381156	0.62096421	1.3736607	0.10504335	0.59133711	1.3883835	-0.050316591	0.58759754	1.1223438	-0.40306245	0.41393338	1.1204324	0.21048165	0.75920951	1.1346896	-0.59093397	0.35084171	1.1300035	0.45470597
